# xmcd CD database file
#
# Track frame offsets:
#	150
#	15011
#	30183
#	52990
#	79447
#	104481
#	126821
#	142672
#	157201
#	179472
#
# Disc length: 2684 seconds
#
# Revision: 0
# Processed by: cddbd v1.5.1PL2 Copyright (c) Steve Scherf et al.
# Submitted via: CDex 1.51
#
DISCID=730a7a0a
DTITLE=Klassiek - Global Stage Orchestra - Music you heard at Cirque du Soleil Shows - CD 1
DYEAR=2005
DGENRE=
TTITLE0=La Nouba
TTITLE1="O"
TTITLE2=Journey Of Man
TTITLE3=L'Oiseau
TTITLE4=Rereil
TTITLE5=Saltimbanco
TTITLE6=Zydeko
TTITLE7=Grosse Femme
TTITLE8=Irna
TTITLE9=Let Me Fall
EXTD=YEAR: 2005
EXTT0=
EXTT1=
EXTT2=
EXTT3=
EXTT4=
EXTT5=
EXTT6=
EXTT7=
EXTT8=
EXTT9=
PLAYORDER=
